<svg id="Layer_1" data-name="Layer 1" xmlns="http://www.w3.org/2000/svg" xmlns:xlink="http://www.w3.org/1999/xlink" viewBox="0 0 595.28 329"><defs><style>.cls-1{fill:url(#New_Gradient_Swatch_copy);}</style><linearGradient id="New_Gradient_Swatch_copy" x1="306.03" y1="293.82" x2="306.42" y2="55.71" gradientUnits="userSpaceOnUse"><stop offset="0" stop-color="#a08dc3"/><stop offset="1" stop-color="#5e3b95"/></linearGradient></defs><path class="cls-1" d="M306.23,52.35A119.06,119.06,0,1,0,425.29,171.4,119.06,119.06,0,0,0,306.23,52.35Zm4.15,162.48c-2.69,6.19-7.72,9.31-12.53,9.43-6.18.05-9.84-1.38-12.81-4.29-15-14.73-30.07-29.42-44.92-44.32-6.25-6.26-5.94-17,.13-23,6.29-6.21,16.25-6.18,22.84.34q21.95,21.71,43.69,43.62C312,201.84,313.31,208.07,310.38,214.83Zm19.2-23.21A15.88,15.88,0,0,1,313.52,176c0-9.7,6.89-15.76,15.34-16.08a15.65,15.65,0,0,1,16.35,15.69A15.86,15.86,0,0,1,329.58,191.62Zm31.69-27.75a15.88,15.88,0,0,1-16.06-15.61c0-9.7,6.89-15.76,15.34-16.08a15.64,15.64,0,0,1,16.34,15.69A15.84,15.84,0,0,1,361.27,163.87Z"/></svg>